<?xml version="1.0" encoding="UTF-8"?>
<svg width="100px" height="100px" viewBox="0 0 100 100" version="1.1" xmlns="http://www.w3.org/2000/svg" xmlns:xlink="http://www.w3.org/1999/xlink">
    <title>Split</title>
    <defs>
        <rect id="path-1" x="0" y="0" width="100" height="100"></rect>
    </defs>
    <g id="Page-1" stroke="none" stroke-width="1" fill="none" fill-rule="evenodd">
        <g id="Bitmap-Copy-3">
            <mask id="mask-2" fill="white">
                <use xlink:href="#path-1"></use>
            </mask>
            <use id="Mask" fill="#0065CC" xlink:href="#path-1"></use>
            <g id="Group-8" mask="url(#mask-2)">
                <g transform="translate(29.1665, 29.1665)">
                    <path d="M41.4633681,4.3703125 L37.2967014,0.203645833 C37.0251736,-0.0678819444 36.5862847,-0.0678819444 36.3147569,0.203645833 L0.203645833,36.3147569 C-0.0678819444,36.5862847 -0.0678819444,37.0251736 0.203645833,37.2967014 L4.3703125,41.4633681 C4.50572917,41.5987847 4.68350694,41.6668403 4.86128472,41.6668403 C5.0390625,41.6668403 5.21684028,41.5987847 5.35225694,41.4633681 L41.4633681,5.35225694 C41.7348958,5.08072917 41.7348958,4.64184028 41.4633681,4.3703125" id="Fill-1" fill="#FFFFFF"></path>
                    <path d="M7.6390625,15.2779514 C11.8508681,15.2779514 15.2779514,11.8508681 15.2779514,7.6390625 C15.2779514,3.42725694 11.8508681,0.000173611111 7.6390625,0.000173611111 C3.42725694,0.000173611111 0.000173611111,3.42725694 0.000173611111,7.6390625 C0.000173611111,11.8508681 3.42725694,15.2779514 7.6390625,15.2779514" id="Fill-4" fill="#91FF76"></path>
                    <path d="M34.0279514,26.3890625 C29.8161458,26.3890625 26.3890625,29.8161458 26.3890625,34.0279514 C26.3890625,38.2397569 29.8161458,41.6668403 34.0279514,41.6668403 C38.2397569,41.6668403 41.6668403,38.2397569 41.6668403,34.0279514 C41.6668403,29.8161458 38.2397569,26.3890625 34.0279514,26.3890625" id="Fill-6" fill="#FEEA16"></path>
                </g>
            </g>
        </g>
    </g>
</svg>