<?xml version="1.0" encoding="UTF-8" standalone="no"?>
<!DOCTYPE svg PUBLIC "-//W3C//DTD SVG 1.1//EN" "http://www.w3.org/Graphics/SVG/1.1/DTD/svg11.dtd">
<!-- Created with Vectornator (http://vectornator.io/) -->
<svg height="100%" stroke-miterlimit="10" style="fill-rule:nonzero;clip-rule:evenodd;stroke-linecap:round;stroke-linejoin:round;" version="1.1" viewBox="0 0 72 72" width="100%" xml:space="preserve" xmlns="http://www.w3.org/2000/svg" xmlns:xlink="http://www.w3.org/1999/xlink">
<defs/>
<g id="Layer-1" visibility="hidden">
<path d="M0 18C0 8.05887 8.05887 0 18 0L54 0C63.9411 0 72 8.05887 72 18L72 54C72 63.9411 63.9411 72 54 72L18 72C8.05887 72 0 63.9411 0 54L0 18Z" fill="#000000" fill-rule="nonzero" opacity="0.972583" stroke="none"/>
<path d="M36.8643 67.1526L44.9322 67.1533L53 67.1541C56.866 67.1541 60.366 65.5869 62.8995 63.0531C65.433 60.5193 67 57.0189 67 53.1524L67 36.1504L67 19.1484C67 15.282 65.433 11.7816 62.8995 9.24779C60.366 6.71399 56.866 5.1468 53 5.1468L36 5.1468L19 5.1468C15.134 5.1468 11.634 6.71399 9.10051 9.24779C6.567 11.7816 5 15.282 5 19.1484L5 36.1504L5 53.1524C5 57.0189 6.567 60.5193 9.10051 63.0531C11.634 65.5869 15.134 67.1541 19 67.1541L24.3235 67.1512L26.9199 67.1742C27.0329 66.6772 26.8637 57.5334 26.3403 52.281C26.0431 49.298 26.3239 43.7524 26.3863 41.7483C26.4552 39.5351 26.1633 35.09 26.6691 31.8725C26.8226 30.8966 26.8252 27.8449 28.304 27.9191C29.5488 27.9815 29.6571 29.1147 29.62 30.8997C29.5702 33.2912 30.3536 39.6745 30.3536 39.6745C30.3536 39.6745 31.2733 29.9573 32.2538 26.1137C32.4903 25.1865 33.4638 21.9692 34.7267 22.0086C36.8714 22.0755 36.2703 24.7876 36.3196 25.8664C36.35 26.5325 35.5854 30.2098 35.497 30.9681C35.2381 33.1874 35.2932 39.6562 35.3588 39.6916C35.4397 39.7352 36.6895 32.9423 37.0337 31.593C37.8164 28.525 37.8735 26.5609 38.6558 23.4944C39.0121 22.0974 39.3853 19.4151 41.4011 19.9295C42.7147 20.2647 43.0364 22.4317 42.7648 23.7832C41.7417 28.8742 41.684 31.4253 40.8823 36.0845C40.4282 38.7238 40.3802 40.0702 40.3802 40.0702C40.3802 40.0702 41.1416 37.6543 41.717 36.0303C42.1905 34.6938 44.3425 27.0671 44.3425 27.0671C44.3425 27.0671 45.3767 24.1634 46.7449 24.3598C47.7606 24.5056 48.0799 25.5205 48.2346 26.038C48.8266 28.0175 46.7134 34.9113 46.001 37.2359C45.1768 39.9257 44.7869 42.8512 44.3026 45.6221C44.0151 47.2675 43.0172 50.3112 43.8307 51.8439C44.4064 52.9284 46.5114 51.1217 47.0881 50.7166C49.2597 49.191 50.5949 47.0771 53.0083 45.9628C54.4634 45.2909 55.9268 45.8605 56.1771 47.5312C56.3994 49.015 52.1539 52.4148 51.1584 53.5056C49.8559 54.933 48.1687 56.7897 46.5725 57.911C45.9318 58.3612 42.4799 61.3048 41.3298 62.1128C38.4875 64.1096 36.9397 63.6369 36.8306 67.1408" fill="#000000" fill-rule="nonzero" opacity="0.972583" stroke="#ffffff" stroke-linecap="round" stroke-linejoin="round" stroke-width="1"/>
<path d="M21.9434 22.077C18.6568 25.3724 17.4679 27.9817 17.8495 31.876" fill="none" opacity="1" stroke="#ffffff" stroke-linecap="round" stroke-linejoin="round" stroke-width="1"/>
<path d="M18.5196 21.3129C15.233 24.6082 14.0441 27.2176 14.4257 31.1118" fill="none" opacity="1" stroke="#ffffff" stroke-linecap="round" stroke-linejoin="round" stroke-width="1"/>
<path d="M56.7215 30.497C57.6174 25.9298 57.1524 23.1003 54.6676 20.0777" fill="none" opacity="1" stroke="#ffffff" stroke-linecap="round" stroke-linejoin="round" stroke-width="1"/>
<path d="M59.9911 29.2258C60.887 24.6586 60.422 21.8292 57.9372 18.8065" fill="none" opacity="1" stroke="#ffffff" stroke-linecap="round" stroke-linejoin="round" stroke-width="1"/>
</g>
<g id="Bg">
<path d="M0 18C0 8.05887 8.05887 0 18 0L54 0C63.9411 0 72 8.05887 72 18L72 54C72 63.9411 63.9411 72 54 72L18 72C8.05887 72 0 63.9411 0 54L0 18Z" fill="#000f34" fill-rule="nonzero" opacity="0.972583" stroke="none"/>
</g>
<clipPath id="ArtboardFrame">
<rect height="72" width="72" x="0" y="0"/>
</clipPath>
<g clip-path="url(#ArtboardFrame)" id="Alien">
<path d="M31.2847 72C31.2847 72 31.3542 70.0996 32.0239 66.1968C32.2006 65.1672 32.496 63.6322 32.9023 61.9078C33.0063 61.4665 33.3451 59.864 32.9535 60.0923C30.1602 61.7206 26.5173 62.5176 26.1091 62.3809C24.9564 62.159 22.3095 53.7459 21.745 52.3148C20.7399 49.7665 18.8825 45.7096 17.0751 44.0613C15.9589 43.0434 12.771 40.5222 13.0262 40.2261C13.2815 39.93 17.2191 42.7579 17.2234 42.5586C17.2463 41.5062 12.8214 36.0941 13.5857 35.7585C14.35 35.423 18.0866 41.854 18.3471 41.854C18.6274 41.854 17.7524 34.1656 18.7462 34.2829C19.74 34.4001 18.8087 42.1834 19.9481 42.7531C20.3731 42.9656 21.6774 38.1914 22.2798 38.4926C22.6978 38.7016 21.1055 42.1544 21.1539 44.025C21.2023 45.8956 26.6216 60.283 27.1609 60.1482C27.6378 60.029 30.598 58.1794 31.9208 57.169C33.2232 56.1741 33.8219 55.7344 34.5195 54.3391C34.5195 54.3391 34.8888 53.5119 34.7905 52.6954C34.6922 51.8789 34.1263 51.0732 34.1263 51.0732C32.7556 49.2404 31.1129 46.5627 29.8206 44.9996C25.8598 40.2092 22.1737 32.9254 23.0059 26.48C23.3747 23.6232 24.3244 20.5449 25.9176 18.143C30.5009 11.2334 43.0125 9.42641 48.1093 17.9244C53.6014 27.0816 50.0964 35.8459 44.8609 43.9719C44.3734 44.7286 40.5973 49.9601 39.0504 51.6175C39.0504 51.6175 38.5115 52.3307 38.5503 53.2155C38.589 54.1003 39.2053 55.1566 39.2053 55.1566C41.5703 59.8865 44.7086 66.5126 45.7815 72C45.8116 72.1542 31.2847 72 31.2847 72Z" fill="#ffffff" fill-rule="nonzero" opacity="0.972583" stroke="none"/>
<path d="M43.8837 72.0628C43.1029 68.3137 41.4427 64.3603 40.0075 61.4899" fill="none" opacity="0.972583" stroke="#07163a" stroke-linecap="round" stroke-linejoin="round" stroke-width="0.609445"/>
<path d="M42.8993 38.49C42.6399 37.8897 42.2265 37.0341 41.5192 36.6842C40.8261 36.3414 39.8439 36.4941 39.1221 36.8741" fill="none" opacity="0.972583" stroke="#07163a" stroke-linecap="round" stroke-linejoin="round" stroke-width="0.937448"/>
<path d="M34.0107 36.5559C32.435 34.7785 30.368 36.0619 29.6805 36.6809" fill="none" opacity="0.972583" stroke="#07163a" stroke-linecap="round" stroke-linejoin="round" stroke-width="0.937448"/>
<path d="M40.1754 43.5091C37.6162 48.4222 33.7994 46.5249 32.7426 42.6974C32.7426 42.6974 34.4645 44.0262 36.3227 44.2291C38.1809 44.4321 40.1754 43.5091 40.1754 43.5091Z" fill="#07163a" fill-rule="nonzero" opacity="0.972583" stroke="#07163a" stroke-linecap="round" stroke-linejoin="round" stroke-width="0.609445"/>
<path d="M10.3261 39.9292C10.0254 40.5305 9.55986 41.9403 10.5353 43.0219" fill="none" opacity="0.972583" stroke="#ffffff" stroke-linecap="round" stroke-linejoin="round" stroke-width="0.609445"/>
<path d="M8.33286 39.0146C7.45271 40.7749 7.42412 42.4731 8.55433 44.1085" fill="none" opacity="0.972583" stroke="#ffffff" stroke-linecap="round" stroke-linejoin="round" stroke-width="0.609445"/>
</g>
<g clip-path="url(#ArtboardFrame)" id="Stars">
<path d="M63.819 5.41358L63.6134 7.0932L62.9621 6.57903L63.4762 7.23031L61.7966 7.43598L63.4762 7.64165L62.9621 8.29293L63.6134 7.77876L63.819 9.45838L64.0247 7.77876L64.676 8.29293L64.1618 7.64165L65.8414 7.43598L64.1618 7.23031L64.676 6.57903L64.0247 7.0932L63.819 5.41358Z" fill="#ffffff" fill-opacity="0.3" fill-rule="nonzero" opacity="0.972583" stroke="none"/>
<path d="M22.7152 60.4209L22.5078 62.1154L21.8507 61.5967L22.3694 62.2537L20.675 62.4612L22.3694 62.6687L21.8507 63.3257L22.5078 62.807L22.7152 64.5014L22.9227 62.807L23.5798 63.3257L23.0611 62.6687L24.7555 62.4612L23.0611 62.2537L23.5798 61.5967L22.9227 62.1154L22.7152 60.4209Z" fill="#ffffff" fill-opacity="0.45" fill-rule="nonzero" opacity="0.972583" stroke="none"/>
<path d="M64.3262 32.459L63.9512 35.5215L62.7637 34.584L63.7012 35.7715L60.6387 36.1465L63.7012 36.5215L62.7637 37.709L63.9512 36.7715L64.3262 39.834L64.7012 36.7715L65.8887 37.709L64.9512 36.5215L68.0137 36.1465L64.9512 35.7715L65.8887 34.584L64.7012 35.5215L64.3262 32.459Z" fill="#ffffff" fill-opacity="0.2" fill-rule="nonzero" opacity="0.972583" stroke="none"/>
<path d="M52.2014 37.2168L52.019 38.7065L51.4414 38.2505L51.8974 38.8281L50.4077 39.0106L51.8974 39.193L51.4414 39.7706L52.019 39.3146L52.2014 40.8043L52.3838 39.3146L52.9615 39.7706L52.5055 39.193L53.9952 39.0106L52.5055 38.8281L52.9615 38.2505L52.3838 38.7065L52.2014 37.2168Z" fill="#ffffff" fill-opacity="0.8" fill-rule="nonzero" opacity="0.972583" stroke="none"/>
<path d="M53.0274 64.146L52.845 65.6357L52.2673 65.1796L52.7234 65.7573L51.2337 65.9397L52.7234 66.1221L52.2673 66.6997L52.845 66.2437L53.0274 67.7334L53.2098 66.2437L53.7875 66.6997L53.3314 66.1221L54.8211 65.9397L53.3314 65.7573L53.7875 65.1796L53.2098 65.6357L53.0274 64.146Z" fill="#ffffff" fill-opacity="0.8" fill-rule="nonzero" opacity="0.972583" stroke="none"/>
<path d="M60.2719 55.4526L60.0895 56.9423L59.5118 56.4863L59.9678 57.0639L58.4781 57.2463L59.9678 57.4287L59.5118 58.0064L60.0895 57.5503L60.2719 59.04L60.4543 57.5503L61.0319 58.0064L60.5759 57.4287L62.0656 57.2463L60.5759 57.0639L61.0319 56.4863L60.4543 56.9423L60.2719 55.4526Z" fill="#ffffff" fill-opacity="0.3" fill-rule="nonzero" opacity="0.972583" stroke="none"/>
<path d="M41.4212-3.55271e-15L41.0462 3.0625L39.8587 2.125L40.7962 3.3125L37.7337 3.6875L40.7962 4.0625L39.8587 5.25L41.0462 4.3125L41.4212 7.375L41.7962 4.3125L42.9837 5.25L42.0462 4.0625L45.1087 3.6875L42.0462 3.3125L42.9837 2.125L41.7962 3.0625L41.4212-3.55271e-15Z" fill="#ffffff" fill-opacity="0.9" fill-rule="nonzero" opacity="0.972583" stroke="none"/>
<path d="M18.8729 16.7501L18.7304 17.9136L18.2793 17.5574L18.6355 18.0086L17.4719 18.1511L18.6355 18.2936L18.2793 18.7447L18.7304 18.3885L18.8729 19.5521L19.0154 18.3885L19.4666 18.7447L19.1104 18.2936L20.2739 18.1511L19.1104 18.0086L19.4666 17.5574L19.0154 17.9136L18.8729 16.7501Z" fill="#ffffff" fill-opacity="0.8" fill-rule="nonzero" opacity="0.972583" stroke="none"/>
<path d="M9.14406 6.84951L8.84445 9.29635L7.89567 8.54732L8.64471 9.49609L6.19787 9.7957L8.64471 10.0953L7.89567 11.0441L8.84445 10.2951L9.14406 12.7419L9.44367 10.2951L10.3924 11.0441L9.64341 10.0953L12.0902 9.7957L9.64341 9.49609L10.3924 8.54732L9.44367 9.29635L9.14406 6.84951Z" fill="#ffffff" fill-opacity="0.8" fill-rule="nonzero" opacity="0.972583" stroke="none"/>
<path d="M58.5523 15.528L58.3466 17.2076L57.6954 16.6935L58.2095 17.3447L56.5299 17.5504L58.2095 17.7561L57.6954 18.4074L58.3466 17.8932L58.5523 19.5728L58.758 17.8932L59.4093 18.4074L58.8951 17.7561L60.5747 17.5504L58.8951 17.3447L59.4093 16.6935L58.758 17.2076L58.5523 15.528Z" fill="#ffffff" fill-opacity="0.6" fill-rule="nonzero" opacity="0.972583" stroke="none"/>
<path d="M13.7365 54.4608L13.529 56.1553L12.872 55.6366L13.3907 56.2936L11.6963 56.5011L13.3907 56.7086L12.872 57.3656L13.529 56.8469L13.7365 58.5414L13.944 56.8469L14.601 57.3656L14.0823 56.7086L15.7768 56.5011L14.0823 56.2936L14.601 55.6366L13.944 56.1553L13.7365 54.4608Z" fill="#ffffff" fill-opacity="0.3" fill-rule="nonzero" opacity="0.972583" stroke="none"/>
<path d="M60.5994 43.0031L60.2244 46.0656L59.0369 45.1281L59.9744 46.3156L56.9119 46.6906L59.9744 47.0656L59.0369 48.2531L60.2244 47.3156L60.5994 50.3781L60.9744 47.3156L62.1619 48.2531L61.2244 47.0656L64.2869 46.6906L61.2244 46.3156L62.1619 45.1281L60.9744 46.0656L60.5994 43.0031Z" fill="#ffffff" fill-opacity="0.3" fill-rule="nonzero" opacity="0.972583" stroke="none"/>
<path d="M47.0819 49.8429L46.8995 51.3326L46.3218 50.8765L46.7778 51.4542L45.2881 51.6366L46.7778 51.819L46.3218 52.3967L46.8995 51.9406L47.0819 53.4303L47.2643 51.9406L47.8419 52.3967L47.3859 51.819L48.8756 51.6366L47.3859 51.4542L47.8419 50.8765L47.2643 51.3326L47.0819 49.8429Z" fill="#ffffff" fill-opacity="0.2" fill-rule="nonzero" opacity="0.972583" stroke="none"/>
<path d="M29.8493 2.9688L29.4743 6.0313L28.2868 5.0938L29.2243 6.2813L26.1618 6.6563L29.2243 7.0313L28.2868 8.2188L29.4743 7.2813L29.8493 10.3438L30.2243 7.2813L31.4118 8.2188L30.4743 7.0313L33.5368 6.6563L30.4743 6.2813L31.4118 5.0938L30.2243 6.0313L29.8493 2.9688Z" fill="#ffffff" fill-opacity="0.3" fill-rule="nonzero" opacity="0.972583" stroke="none"/>
<path d="M7.64262 25.8584L7.34301 28.3052L6.39424 27.5562L7.14327 28.5049L4.69643 28.8045L7.14327 29.1042L6.39424 30.0529L7.34301 29.3039L7.64262 31.7507L7.94224 29.3039L8.89101 30.0529L8.14198 29.1042L10.5888 28.8045L8.14198 28.5049L8.89101 27.5562L7.94224 28.3052L7.64262 25.8584Z" fill="#ffffff" fill-opacity="0.3" fill-rule="nonzero" opacity="0.972583" stroke="none"/>
</g>
</svg>
