<?xml version="1.0" encoding="UTF-8"?>
<svg width="72px" height="72px" viewBox="0 0 72 72" version="1.1" xmlns="http://www.w3.org/2000/svg" xmlns:xlink="http://www.w3.org/1999/xlink">
    <title>Payggy</title>
    <defs>
        <rect id="path-1" x="0" y="0" width="72" height="72"></rect>
    </defs>
    <g id="Page-1" stroke="none" stroke-width="1" fill="none" fill-rule="evenodd">
        <g id="Payggy">
            <mask id="mask-2" fill="white">
                <use xlink:href="#path-1"></use>
            </mask>
            <use id="Mask" fill="#99FFD9" xlink:href="#path-1"></use>
            <path d="M28.193518,20.5714286 C30.1639245,20.5714286 32.0029307,21.5662319 33.0919343,23.1934373 C34.2259381,22.9900366 35.400142,22.9708366 36.5143457,22.9708366 C44.5219724,22.9708366 51.0811943,28.2688542 51.4693956,34.9036763 C52.5379991,34.6582755 53.3144017,33.7246724 53.3144017,32.5708686 C53.3144017,32.2396675 53.5826026,31.9708666 53.9144037,31.9708666 C54.2462048,31.9708666 54.5144057,32.2396675 54.5144057,32.5708686 C54.5144057,34.3996747 53.2148014,35.8654796 51.4699956,36.1258804 C51.1969947,41.0398968 47.5861826,45.2267108 42.5143657,47.108317 L42.5143657,51.1709306 C42.5143657,51.5027317 42.2461648,51.7709326 41.9143637,51.7709326 C41.5825626,51.7709326 41.3143617,51.5027317 41.3143617,51.1709306 L41.3143617,47.5007183 C39.8065567,47.9333198 38.1931513,48.1709206 36.5143457,48.1709206 C34.79774,48.1709206 33.1933346,47.9795199 31.7143297,47.6195187 L31.7143297,51.1709306 C31.7143297,51.5027317 31.4461288,51.7709326 31.1143277,51.7709326 C30.7825266,51.7709326 30.5143257,51.5027317 30.5143257,51.1709306 L30.5143257,47.2787176 C27.0403141,46.1525138 24.3949053,43.9925066 22.9315004,40.9708966 L19.1142877,40.9708966 C18.7824866,40.9708966 18.5142857,40.7026957 18.5142857,40.3708946 L18.5142857,34.3708746 C18.5142857,34.0396735 18.7824866,33.7708726 19.1142877,33.7708726 L21.605496,33.7708726 C22.2342981,30.4798616 24.3877053,27.4102514 27.4753156,25.4158447 C27.1897146,24.1522405 26.391712,23.0686369 25.2445081,22.4050347 C25.0585075,22.2982343 24.9445071,22.1002337 24.9445071,21.886033 C24.9445071,21.6718322 25.0585075,21.4738316 25.2439081,21.3664312 C26.1433111,20.8462295 27.1627145,20.5714286 28.193518,20.5714286 Z M28.1143177,31.3708646 C27.1219144,31.3708646 26.3143117,32.1784673 26.3143117,33.1708706 C26.3143117,34.1638739 27.1219144,34.9708766 28.1143177,34.9708766 C29.106721,34.9708766 29.9143237,34.1638739 29.9143237,33.1708706 C29.9143237,32.1784673 29.106721,31.3708646 28.1143177,31.3708646 Z M28.1144377,32.5711086 C28.4456388,32.5711086 28.7144397,32.8405095 28.7144397,33.1711106 C28.7144397,33.5017117 28.4456388,33.7711126 28.1144377,33.7711126 C27.7832366,33.7711126 27.5144357,33.5017117 27.5144357,33.1711106 C27.5144357,32.8405095 27.7832366,32.5711086 28.1144377,32.5711086 Z M44.0749709,29.091457 C41.7295631,27.3298511 38.6605529,26.387848 35.8753436,26.5720486 C35.5441425,26.5942486 35.2939416,26.8798496 35.3155417,27.2104507 C35.3371418,27.5416518 35.6305428,27.7906526 35.9539438,27.7696526 C38.4727522,27.603452 41.2321614,28.4572549 43.3543685,30.0508602 C43.4617689,30.1318604 43.5883693,30.1708606 43.7137697,30.1708606 C43.8961703,30.1708606 44.0767709,30.0886603 44.1943713,29.9314598 C44.392972,29.6662589 44.3395718,29.2906576 44.0749709,29.091457 Z" id="Combined-Shape" fill="#3E36D3" fill-rule="nonzero" mask="url(#mask-2)"></path>
        </g>
    </g>
</svg>